{
    "asset" : {
        "generator" : "Khronos glTF Blender I/O v1.1.45",
        "version" : "2.0"
    },
    "scene" : 0,
    "scenes" : [
        {
            "name" : "Scene",
            "nodes" : [
                0
            ]
        }
    ],
    "nodes" : [
        {
            "mesh" : 0,
            "name" : "Sphere.024",
            "translation" : [
                0.7376459240913391,
                1.3605940341949463,
                2.2701146602630615
            ]
        }
    ],
    "materials" : [
        {
            "doubleSided" : true,
            "emissiveFactor" : [
                0,
                0,
                0
            ],
            "name" : "Material.002",
            "pbrMetallicRoughness" : {
                "baseColorFactor" : [
                    0.7879853844642639,
                    0.7760764956474304,
                    0.8000000715255737,
                    1
                ],
                "metallicFactor" : 0,
                "roughnessFactor" : 0.5
            }
        }
    ],
    "meshes" : [
        {
            "name" : "Sphere.024",
            "primitives" : [
                {
                    "attributes" : {
                        "POSITION" : 0,
                        "NORMAL" : 1
                    },
                    "indices" : 2,
                    "material" : 0
                }
            ]
        }
    ],
    "accessors" : [
        {
            "bufferView" : 0,
            "componentType" : 5126,
            "count" : 2224,
            "max" : [
                3.291290283203125,
                2.4243407249450684,
                3.2173423767089844
            ],
            "min" : [
                -3.745424270629883,
                -3.022158145904541,
                -6.30773401260376
            ],
            "type" : "VEC3"
        },
        {
            "bufferView" : 1,
            "componentType" : 5126,
            "count" : 2224,
            "type" : "VEC3"
        },
        {
            "bufferView" : 2,
            "componentType" : 5123,
            "count" : 3336,
            "type" : "SCALAR"
        }
    ],
    "bufferViews" : [
        {
            "buffer" : 0,
            "byteLength" : 26688,
            "byteOffset" : 0
        },
        {
            "buffer" : 0,
            "byteLength" : 26688,
            "byteOffset" : 26688
        },
        {
            "buffer" : 0,
            "byteLength" : 6672,
            "byteOffset" : 53376
        }
    ],
    "buffers" : [
        {
            "byteLength" : 60048,
            "uri" : "data:application/octet-stream;base64,"
        }
    ]
}
